<svg height="512pt" viewBox="0 0 512 512" width="512pt" xmlns="http://www.w3.org/2000/svg"><path d="m308.964844 41.488281v-23.832031c-.027344-9.738281-7.914063-17.6289062-17.65625-17.65625h-17.652344c-9.738281.0273438-17.628906 7.917969-17.65625 17.65625v23.832031zm0 0" fill="#2c2f38"/><path d="m468.101562 222.457031c0 102.511719-83.105468 185.617188-185.617187 185.617188-102.515625 0-185.621094-83.105469-185.621094-185.617188 0-102.515625 83.105469-185.621093 185.621094-185.621093 102.511719 0 185.617187 83.105468 185.617187 185.621093zm0 0" fill="#c03a2b"/><path d="m432.550781 222.457031c0 2.910157-.085937 5.914063-.265625 8.824219-1.296875 23.195312-8.039062 45.753906-19.683594 65.855469-.089843.089843-.089843.265625-.175781.351562v.089844c-13.195312 22.730469-32.089843 41.625-54.820312 54.820313h-.089844c-.085937.085937-.261719.085937-.351563.175781-22.679687 13.167969-48.457031 20.054687-74.679687 19.949219-53.597656.046874-103.144531-28.527344-129.945313-74.945313v-.089844c-.085937-.085937-.085937-.261719-.175781-.351562-8.226562-14.175781-14.015625-29.632813-17.125-45.726563-1.308593-6.644531-2.164062-13.367187-2.558593-20.128906-.175782-2.910156-.265626-5.914062-.265626-8.824219 0-2.914062.089844-5.917969.265626-8.828125 1.296874-23.195312 8.039062-45.753906 19.683593-65.855468.089844-.089844.089844-.265626.175781-.351563v-.089844c13.195313-22.730469 32.09375-41.625 54.820313-54.820312h.089844c.085937-.085938.265625-.085938.351562-.175781 20.101563-11.644532 42.660157-18.386719 65.855469-19.683594 2.910156-.179688 5.914062-.265625 8.828125-.265625 2.910156 0 5.914063.085937 8.824219.265625 23.195312 1.296875 45.753906 8.039062 65.855468 19.683594.089844.089843.265626.089843.351563.175781h.089844c22.730469 13.195312 41.625 32.089843 54.820312 54.820312v.089844c.085938.085937.085938.261719.175781.351563 3.707032 6.324218 6.894532 12.9375 9.535157 19.773437 5.828125 14.71875 9.257812 30.277344 10.148437 46.082031.179688 2.910156.265625 5.914063.265625 8.828125zm0 0" fill="#90bae1"/><path d="m291.308594 183.613281v-58.261719c0-4.875-3.949219-8.828124-8.824219-8.828124-4.878906 0-8.828125 3.953124-8.828125 8.828124v63.027344c-48.996094 14.070313-95.640625 35.308594-138.417969 63.03125-1.308593-6.644531-2.164062-13.367187-2.558593-20.128906-.175782-2.910156-.265626-5.914062-.265626-8.824219 0-2.914062.089844-5.917969.265626-8.828125 1.296874-23.195312 8.039062-45.753906 19.683593-65.855468.089844-.089844.089844-.265626.175781-.351563v-.089844c13.195313-22.730469 32.09375-41.625 54.820313-54.820312h.089844c.085937-.085938.265625-.085938.351562-.175781 20.101563-11.644532 42.660157-18.386719 65.855469-19.683594 2.910156-.179688 5.914062-.265625 8.828125-.265625 2.910156 0 5.914063.085937 8.824219.265625 23.195312 1.296875 45.753906 8.039062 65.855468 19.683594.089844.089843.265626.089843.351563.175781h.089844c22.730469 13.195312 41.625 32.089843 54.820312 54.820312v.089844c.085938.085937.085938.261719.175781.351563 3.707032 6.324218 6.894532 12.9375 9.535157 19.773437-44.097657.042969-88.027344 5.4375-130.828125 16.066406zm0 0" fill="#b0d3f0"/><path d="m17.65625 291.308594h44.136719c9.75 0 17.65625 7.90625 17.65625 17.65625v185.378906c0 9.75-7.90625 17.65625-17.65625 17.65625h-44.136719c-9.75 0-17.65625-7.90625-17.65625-17.65625v-185.378906c0-9.75 7.90625-17.65625 17.65625-17.65625zm0 0" fill="#4482c3"/><path d="m500.347656 393.445312-165.429687 100.722657c-9.683594 5.890625-20.796875 9.007812-32.132813 9.003906h-223.335937v-194.207031h24.714843c18.289063.027344 36.027344 6.25 50.320313 17.65625s32.027344 17.628906 50.316406 17.65625h46.167969c15.519531-.023438 29.910156 8.125 37.871094 21.449218l.792968 1.324219c7.410157 12.601563 5.417969 28.617188-4.855468 39.019531h20.746094c3.8125 0 7.601562-.625 11.210937-1.855468l163.398437-54.464844c9.890626-3.25 20.75.160156 27.011719 8.472656v.089844c1.363281 1.761719 2.433594 3.726562 3.179688 5.824219 4.28125 10.894531.0625 23.289062-9.976563 29.308593zm0 0" fill="#fdd7ad"/><path d="m293.695312 388.414062c-.992187 6.691407-4.121093 12.882813-8.917968 17.65625h-57.730469c-13.308594-.011718-26.402344 3.363282-38.046875 9.796876-3.03125 1.730468-6.859375 1.105468-9.183594-1.5-1.101562-1.3125-1.726562-2.964844-1.765625-4.679688.011719-2.582031 1.390625-4.964844 3.621094-6.265625 13.734375-8.496094 29.28125-13.636719 45.375-15.007813zm0 0" fill="#cbb292"/><path d="m291.308594 72.652344v17.390625c0 4.875-3.949219 8.824219-8.824219 8.824219-4.878906 0-8.828125-3.949219-8.828125-8.824219v-17.390625c2.910156-.179688 5.914062-.265625 8.828125-.265625 2.910156 0 5.914063.085937 8.824219.265625zm0 0" fill="#a5a5a4"/><path d="m216.277344 116.605469c-3.160156 0-6.078125-1.683594-7.65625-4.414063l-4.414063-7.636718c-2.398437-4.21875-.941406-9.582032 3.261719-12.007813s9.574219-1.007813 12.027344 3.179687l4.414062 7.636719c2.441406 4.21875 1 9.617188-3.21875 12.058594-1.339844.78125-2.863281 1.1875-4.414062 1.183594zm0 0" fill="#a5a5a4"/><path d="m353.101562 353.605469c-3.15625.003906-6.074218-1.679688-7.652343-4.414063l-4.414063-7.652344c-1.601562-2.734374-1.617187-6.113281-.039062-8.859374 1.578125-2.75 4.507812-4.4375 7.675781-4.433594 3.167969.007812 6.089844 1.710937 7.652344 4.464844l4.414062 7.65625c1.578125 2.726562 1.578125 6.089843.003907 8.820312-1.574219 2.730469-4.488282 4.414062-7.640626 4.417969zm0 0" fill="#5e5f62"/><path d="m167.804688 165.074219c-1.550782.003906-3.074219-.402344-4.414063-1.179688l-7.644531-4.414062c-2.753906-1.566407-4.457032-4.488281-4.464844-7.65625s1.683594-6.097657 4.429688-7.671875c2.746093-1.578125 6.128906-1.566406 8.863281.039062l7.644531 4.414063c3.457031 1.996093 5.144531 6.070312 4.109375 9.925781-1.03125 3.859375-4.527344 6.542969-8.523437 6.542969zm0 0" fill="#a5a5a4"/><path d="m404.789062 301.902344c-1.550781 0-3.070312-.40625-4.414062-1.183594l-7.644531-4.410156c-2.753907-1.566406-4.457031-4.488282-4.464844-7.65625-.007813-3.167969 1.683594-6.097656 4.429687-7.675782 2.75-1.578124 6.128907-1.5625 8.863282.039063l7.644531 4.414063c3.460937 2 5.144531 6.070312 4.113281 9.929687-1.035156 3.859375-4.53125 6.542969-8.527344 6.542969zm0 0" fill="#5e5f62"/><path d="m160.175781 301.902344c-3.996093 0-7.492187-2.683594-8.527343-6.542969-1.03125-3.859375.65625-7.929687 4.113281-9.929687l7.644531-4.414063c2.734375-1.601563 6.117188-1.617187 8.863281-.039063 2.746094 1.578126 4.4375 4.507813 4.429688 7.675782-.007813 3.167968-1.710938 6.089844-4.464844 7.65625l-7.644531 4.410156c-1.339844.777344-2.863282 1.183594-4.414063 1.183594zm0 0" fill="#5e5f62"/><g fill="#a5a5a4"><path d="m397.160156 165.074219c-3.992187 0-7.492187-2.683594-8.523437-6.542969-1.035157-3.855469.652343-7.929688 4.113281-9.925781l7.644531-4.414063c2.730469-1.605468 6.113281-1.617187 8.859375-.039062 2.746094 1.574218 4.4375 4.503906 4.429688 7.671875-.003906 3.167969-1.710938 6.089843-4.464844 7.65625l-7.644531 4.414062c-1.339844.777344-2.863281 1.183594-4.414063 1.179688zm0 0"/><path d="m348.691406 116.605469c-1.550781.003906-3.078125-.402344-4.414062-1.183594-4.222656-2.4375-5.671875-7.835937-3.230469-12.058594l4.410156-7.636719c2.457031-4.1875 7.828125-5.605468 12.03125-3.179687s5.660157 7.789063 3.261719 12.007813l-4.414062 7.636718c-1.578126 2.730469-4.492188 4.410156-7.644532 4.414063zm0 0"/><path d="m158.898438 222.457031c0 4.875-3.953126 8.824219-8.828126 8.824219h-17.390624c-.175782-2.910156-.265626-5.914062-.265626-8.824219 0-2.914062.089844-5.917969.265626-8.828125h17.390624c4.875 0 8.828126 3.949219 8.828126 8.828125zm0 0"/></g><path d="m432.550781 222.457031c0 2.910157-.085937 5.914063-.265625 8.824219h-17.386718c-4.878907 0-8.828126-3.949219-8.828126-8.824219 0-4.878906 3.949219-8.828125 8.828126-8.828125h17.386718c.179688 2.910156.265625 5.914063.265625 8.828125zm0 0" fill="#5e5f62"/><path d="m353.101562 231.28125h-44.136718c-4.875 0-8.828125-3.949219-8.828125-8.824219 0-4.878906 3.953125-8.828125 8.828125-8.828125h44.136718c4.878907 0 8.828126 3.949219 8.828126 8.828125 0 4.875-3.949219 8.824219-8.828126 8.824219zm0 0" fill="#5e5f62"/><path d="m291.308594 125.351562v58.261719c-6 1.414063-11.914063 3-17.652344 4.765625v-63.027344c0-4.875 3.949219-8.828124 8.828125-8.828124 4.875 0 8.824219 3.953124 8.824219 8.828124zm0 0" fill="#a5a5a4"/><path d="m291.308594 183.613281v12.359375c0 4.875-3.949219 8.828125-8.824219 8.828125-4.878906 0-8.828125-3.953125-8.828125-8.828125v-7.59375c5.738281-1.765625 11.652344-3.351562 17.652344-4.765625zm0 0" fill="#5e5f62"/><path d="m308.964844 222.457031c0 14.625-11.855469 26.480469-26.480469 26.480469-14.628906 0-26.484375-11.855469-26.484375-26.480469 0-14.628906 11.855469-26.484375 26.484375-26.484375 14.625 0 26.480469 11.855469 26.480469 26.484375zm0 0" fill="#2c2f38"/></svg>