<?xml version="1.0" encoding="iso-8859-1"?>
<!-- Generator: Adobe Illustrator 19.0.0, SVG Export Plug-In . SVG Version: 6.00 Build 0)  -->
<svg version="1.1" id="Capa_1" xmlns="http://www.w3.org/2000/svg" xmlns:xlink="http://www.w3.org/1999/xlink" x="0px" y="0px"
	 viewBox="0 0 512.001 512.001" style="enable-background:new 0 0 512.001 512.001;" xml:space="preserve">
<g transform="translate(-1)">
	<path style="fill:#FF5364;" d="M361.151,104.744V34.713c0-14.378-11.656-26.034-26.034-26.034s-26.034,11.656-26.034,26.034v78.102
		c0-14.378-11.656-26.034-26.034-26.034c-14.378,0-26.034,11.656-26.034,26.034c0-14.378-11.656-26.034-26.034-26.034
		s-26.034,11.656-26.034,26.034V34.713c0-14.378-11.656-26.034-26.034-26.034S152.88,20.335,152.88,34.713v70.031
		C85.778,141.429,42.956,210.742,40.179,287.167s34.901,148.663,99.163,190.122c17.592,11.43,36.775,20.202,56.927,26.034
		c39.671,11.571,81.821,11.571,121.492,0c37.652-11.012,71.625-32.001,98.321-60.746c3.731-4.079,7.289-8.157,10.674-12.496
		c0-0.023,0.009-0.046,0.025-0.062c0.016-0.016,0.039-0.025,0.062-0.025h0.087c4.252-5.38,8.244-10.934,11.976-16.662v-0.087
		c32.918-50.622,43.24-112.676,28.482-171.228C452.631,183.465,414.13,133.717,361.151,104.744z"/>
	<path style="fill:#FDD7AD;" d="M317.761,407.865v95.458c-39.671,11.571-81.821,11.571-121.492,0v-95.458H317.761z"/>
	<g>
		<path style="fill:#CBB292;" d="M257.016,112.815v53.977c-3.24-1.249-6.681-1.896-10.153-1.909h-41.915v-52.068
			c0-14.378,11.656-26.034,26.034-26.034S257.016,98.437,257.016,112.815z"/>
		<path style="fill:#CBB292;" d="M309.083,112.815v78.102c0.009,6.907-2.731,13.535-7.615,18.419
			c-4.884,4.884-11.512,7.624-18.419,7.615c-6.416,0.014-12.606-2.369-17.356-6.682c0.368-0.294,0.716-0.613,1.041-0.955
			c5.38-5.33,8.141-12.757,7.55-20.306c-0.917-10.145-7.664-18.825-17.269-22.216v-53.977c0-14.378,11.656-26.034,26.034-26.034
			C297.428,86.781,309.083,98.437,309.083,112.815z"/>
	</g>
	<g>
		<path style="fill:#FDD7AD;" d="M204.948,34.713v130.169h-17.356c-9.207-0.003-18.038,3.654-24.548,10.164
			s-10.167,15.341-10.164,24.548V34.713c0-14.378,11.656-26.034,26.034-26.034S204.948,20.335,204.948,34.713z"/>
		<path style="fill:#FDD7AD;" d="M361.151,34.713V216.95c0.002,25.318-10.054,49.599-27.957,67.501
			c-17.902,17.902-42.184,27.959-67.501,27.957h-17.356c-25.318,0.002-49.599-10.054-67.501-27.957
			c-17.902-17.902-27.959-42.183-27.957-67.501v-17.356c-0.003-9.207,3.654-18.038,10.164-24.548s15.341-10.167,24.548-10.164
			h59.271c3.472,0.013,6.913,0.66,10.153,1.909c9.606,3.391,16.353,12.07,17.269,22.216c0.591,7.55-2.17,14.977-7.55,20.306
			c-0.325,0.341-0.673,0.66-1.041,0.955c4.75,4.313,10.94,6.696,17.356,6.682c6.907,0.009,13.535-2.731,18.419-7.615
			c4.884-4.884,7.624-11.511,7.615-18.419V34.713c0-14.378,11.656-26.034,26.034-26.034S361.151,20.335,361.151,34.713z"/>
		<path style="fill:#FDD7AD;" d="M248.338,225.628h-34.712c-4.793,0-8.678-3.885-8.678-8.678c0-4.793,3.885-8.678,8.678-8.678
			h34.712c4.261,0.006,8.372-1.575,11.53-4.436c3.554-3.207,9.033-2.932,12.247,0.616c3.214,3.548,2.948,9.028-0.594,12.248
			C265.171,222.455,256.906,225.638,248.338,225.628z"/>
		<path style="fill:#FDD7AD;" d="M187.592,242.984c-4.793,0-8.678-3.885-8.678-8.678s3.885-8.678,8.678-8.678
			c10.593,0,17.356-5.14,17.356-8.678c0-4.793,3.885-8.678,8.678-8.678c4.793,0,8.678,3.885,8.678,8.678
			C222.304,231.548,207.058,242.984,187.592,242.984z"/>
		<path style="fill:#FDD7AD;" d="M317.761,296.961v58.837H196.27v-58.837c15.468,10.138,33.574,15.509,52.068,15.447h17.356
			C284.188,312.47,302.293,307.099,317.761,296.961z"/>
	</g>
	<path style="fill:#F0C419;" d="M187.592,355.798h138.847c4.793,0,8.678,3.885,8.678,8.678v34.712c0,4.793-3.885,8.678-8.678,8.678
		H187.592c-4.793,0-8.678-3.885-8.678-8.678v-34.712C178.914,359.683,182.799,355.798,187.592,355.798z"/>
	<rect x="335.117" y="364.476" style="fill:#F29C1F;" width="34.712" height="34.712"/>
	<path style="fill:#F0C419;" d="M429.36,366.211l-28.29,15.62l-31.241,17.356v-34.712l43.39-24.906
		c3.978-2.258,9.026-1.043,11.542,2.777l7.637,11.455c1.323,2.027,1.748,4.512,1.172,6.863
		C432.994,363.017,431.47,365.025,429.36,366.211z"/>
	<path style="fill:#D25627;" d="M438.906,413.246v0.087c-3.732,5.727-7.723,11.281-11.976,16.662h-0.087
		c-0.023,0-0.046,0.009-0.062,0.025c-0.016,0.016-0.025,0.039-0.025,0.062c-2.572,1.333-5.645,1.267-8.157-0.174l-48.77-30.72
		l31.241-17.356l33.757,21.435C438.353,405.229,440.048,409.375,438.906,413.246z"/>
	<path style="fill:#FF5364;" d="M359.651,10.179c-9.922-9.934-24.852-12.91-37.824-7.538s-21.428,18.032-21.422,32.072v48.203
		c-14.278-8.525-32.625-5.486-43.392,7.186c-0.52-0.594-0.934-1.257-1.498-1.821c-11.07-11.208-28.359-13.416-41.89-5.349V34.713
		c0-19.171-15.541-34.712-34.712-34.712s-34.712,15.541-34.712,34.712V216.95c0.066,57.485,46.65,104.07,104.136,104.136h17.356
		c57.485-0.066,104.07-46.65,104.136-104.136V34.713C369.849,25.504,366.184,16.669,359.651,10.179z M283.049,95.459
		c9.578,0.018,17.338,7.778,17.356,17.356v78.102c-0.01,9.581-7.774,17.346-17.356,17.356c-1.517-0.022-3.024-0.245-4.482-0.664
		c4.497-7.827,5.667-17.131,3.247-25.827c-2.42-8.697-8.227-16.059-16.121-20.438v-48.529
		C265.703,103.233,273.468,95.468,283.049,95.459z M230.982,95.459c9.578,0.018,17.338,7.778,17.356,17.356v43.525
		c-0.496-0.02-0.966-0.136-1.466-0.136h-33.246v-43.39C213.635,103.233,221.4,95.468,230.982,95.459z M178.914,17.357
		c9.578,0.018,17.338,7.778,17.356,17.356v121.492h-8.678c-9.419,0.033-18.566,3.16-26.034,8.9V34.713
		C161.568,25.131,169.332,17.367,178.914,17.357z M352.473,216.95c-0.053,47.905-38.875,86.726-86.78,86.78h-17.356
		c-47.905-0.053-86.726-38.875-86.78-86.78v-17.356c0.016-14.372,11.662-26.018,26.034-26.034h59.28
		c2.298,0.006,4.576,0.414,6.733,1.206c0.066,0.028,0.14,0.031,0.207,0.057c6.478,2.231,11.087,7.998,11.836,14.808
		c0.348,4.811-1.319,9.55-4.601,13.085c-3.282,3.535-7.885,5.547-12.709,5.556h-34.712c-4.793,0-8.678,3.885-8.678,8.678
		c0,3.538-6.763,8.678-17.356,8.678c-4.793,0-8.678,3.885-8.678,8.678s3.885,8.678,8.678,8.678
		c13.305,0.924,25.975-5.811,32.653-17.356h28.093c6.084-0.033,12.05-1.681,17.288-4.776c10.715,6.302,23.987,6.372,34.767,0.182
		c10.78-6.19,17.41-17.687,17.369-30.118V34.713c0-9.585,7.771-17.356,17.356-17.356c9.585,0,17.356,7.771,17.356,17.356V216.95z"/>
</g>
<g>
</g>
<g>
</g>
<g>
</g>
<g>
</g>
<g>
</g>
<g>
</g>
<g>
</g>
<g>
</g>
<g>
</g>
<g>
</g>
<g>
</g>
<g>
</g>
<g>
</g>
<g>
</g>
<g>
</g>
</svg>
