<svg id="icons" enable-background="new 0 0 64 64" height="512" viewBox="0 0 64 64" width="512" xmlns="http://www.w3.org/2000/svg"><path d="m60 36 3 4h-11l-.97-4h8.46z" fill="#f6bb42"/><path d="m51 60h3v-3h-3zm6 0h3v-3h-3zm6-20v23h-27.97v-3.34-19.66z" fill="#ffce54"/><path d="m51.03 36 .97 4h-6l1-4z" fill="#ccd1d9"/><path d="m47 36-1 4h-10.97l2.97-4z" fill="#f6bb42"/><path d="m46 40h6v2.999h-6z" fill="#e6e9ed"/><path d="m59.66 26h-18.64c-1.1 0-2-.89-2-2 0-1.1.9-2 2-2h-11c-1.1 0-2-.89-2-2 0-1.1.9-2 2-2h6c-1.1 0-2-.89-2-2 0-1.1.9-2 2-2h6c-1.1 0-2-.89-2-2 0-1.1.9-2 2-2h-8c-1.1 0-2-.89-2-2 0-1.1.9-2 2-2h12.91c6.7 4.5 11.45 11.68 12.73 20z" fill="#a0d468"/><path d="m24.96 44c1.1 0 2 .9 2 2 0 1.11-.9 2-2 2h-5c1.1 0 2 .9 2 2 0 1.11-.9 2-2 2h-9.65-.01c-4.45-4.19-7.609-9.74-8.78-16h10.44c1.1 0 2 .9 2 2 0 1.11-.9 2-2 2h5c1.1 0 2 .9 2 2 0 1.11-.9 2-2 2z" fill="#a0d468"/><path d="m40.02 12c0 1.11.9 2 2 2h-6c-1.1 0-2 .9-2 2 0 1.11.9 2 2 2h-6c-1.1 0-2 .9-2 2 0 1.11.9 2 2 2h11c-1.1 0-2 .9-2 2 0 1.11.9 2 2 2h18.64c.22 1.47.34 2.97.34 4.5 0 1.88-.18 3.72-.51 5.5h-8.46-4.03-9l-2.97 4v19.66h-.03c-1.47.23-2.97.34-4.5.34-7.81 0-14.91-3.03-20.19-8h9.65c1.1 0 2-.89 2-2 0-1.1-.9-2-2-2h5c1.1 0 2-.89 2-2 0-1.1-.9-2-2-2h-8c1.1 0 2-.89 2-2 0-1.1-.9-2-2-2h-5c1.1 0 2-.89 2-2 0-1.1-.9-2-2-2h-10.44c-.34-1.78-.52-3.62-.52-5.5 0-16.29 13.21-29.5 29.5-29.5 6.08 0 11.73 1.84 16.43 5h-12.91c-1.1 0-2 .9-2 2 0 1.11.9 2 2 2h8c-1.1 0-2 .9-2 2z" fill="#4a89dc"/><path d="m50.999 43.999h-3.997c-.553 0-1-.447-1-1s.447-1 1-1h3.997c.553 0 1 .447 1 1s-.447 1-1 1z" fill="#e6e9ed"/><path d="m43.999 58h-6c-.553 0-1-.447-1-1s.447-1 1-1h6c.553 0 1 .447 1 1s-.447 1-1 1z" fill="#edab37"/><path d="m40.996 61.002h-2.997c-.553 0-1-.447-1-1s.447-1 1-1h2.997c.553 0 1 .447 1 1s-.447 1-1 1z" fill="#edab37"/><g fill="#656d78"><path d="m54.001 56h-3c-.553 0-1 .447-1 1v3c0 .553.447 1 1 1h3c.553 0 1-.447 1-1v-3c0-.553-.447-1-1-1z"/><path d="m60.001 56h-3c-.553 0-1 .447-1 1v3c0 .553.447 1 1 1h3c.553 0 1-.447 1-1v-3c0-.553-.447-1-1-1z"/></g></svg>